<?xml version="1.0" encoding="UTF-8" standalone="no"?>
<!DOCTYPE svg PUBLIC "-//W3C//DTD SVG 1.1//EN"
 "http://www.w3.org/Graphics/SVG/1.1/DTD/svg11.dtd">
<!-- Generated by graphviz version 2.38.0 (20140413.2041)
 -->
<!-- Title: %3 Pages: 1 -->
<svg width="1664pt" height="1946pt"
 viewBox="0.00 0.00 1664.27 1946.00" xmlns="http://www.w3.org/2000/svg" xmlns:xlink="http://www.w3.org/1999/xlink">
<g id="graph0" class="graph" transform="scale(1 1) rotate(0) translate(4 1942)">
<title>%3</title>
<polygon fill="white" stroke="none" points="-4,4 -4,-1942 1660.27,-1942 1660.27,4 -4,4"/>
<g id="clust1" class="cluster"><title>cluster_handshake</title>
<polygon fill="none" stroke="gray" points="574.269,-15.3505 574.269,-1815.2 1648.27,-1815.2 1648.27,-15.3505 574.269,-15.3505"/>
<text text-anchor="middle" x="1111.27" y="-1800" font-family="Helvetica,sans-Serif" font-size="14.00">Handshake</text>
</g>
<g id="clust2" class="cluster"><title>cluster_server_cert</title>
<polygon fill="none" stroke="gray" points="582.269,-437.489 582.269,-1490.92 1280.27,-1490.92 1280.27,-437.489 582.269,-437.489"/>
<text text-anchor="middle" x="931.269" y="-1475.72" font-family="Helvetica,sans-Serif" font-size="14.00">Server has Certificate</text>
</g>
<g id="clust3" class="cluster"><title>cluster_client_cert</title>
<polygon fill="none" stroke="gray" points="590.269,-452.84 590.269,-1166.64 936.269,-1166.64 936.269,-452.84 590.269,-452.84"/>
<text text-anchor="middle" x="763.269" y="-1151.44" font-family="Helvetica,sans-Serif" font-size="14.00">Client Certificate Requested</text>
</g>
<g id="clust4" class="cluster"><title>cluster_no_server_cert</title>
<polygon fill="none" stroke="gray" points="1288.27,-1020.81 1288.27,-1490.92 1628.27,-1490.92 1628.27,-1020.81 1288.27,-1020.81"/>
<text text-anchor="middle" x="1458.27" y="-1475.72" font-family="Helvetica,sans-Serif" font-size="14.00">Server has no Certificate</text>
</g>
<g id="clust5" class="cluster"><title>cluster_close</title>
<polygon fill="none" stroke="black" points="148.269,-1527.37 148.269,-1815.2 566.269,-1815.2 566.269,-1527.37 148.269,-1527.37"/>
<text text-anchor="middle" x="357.269" y="-1800" font-family="Helvetica,sans-Serif" font-size="14.00">Closing</text>
</g>
<!-- ClientHello -->
<g id="node1" class="node"><title>ClientHello</title>
<polygon fill="none" stroke="black" points="641.269,-1702.35 641.269,-1738.35 725.269,-1738.35 725.269,-1702.35 641.269,-1702.35"/>
<text text-anchor="middle" x="683.269" y="-1716.65" font-family="Helvetica,sans-Serif" font-size="14.00">ClientHello</text>
</g>
<!-- ClientHello&#45;&gt;ClientHello -->
<g id="edge3" class="edge"><title>ClientHello&#45;&gt;ClientHello</title>
<path fill="none" stroke="red" d="M725.325,-1733.27C735.613,-1732.31 743.269,-1728.01 743.269,-1720.35 743.269,-1715.45 740.127,-1711.92 735.164,-1709.76"/>
<polygon fill="red" stroke="red" points="735.862,-1706.33 725.325,-1707.43 734.249,-1713.14 735.862,-1706.33"/>
<text text-anchor="middle" x="798.269" y="-1716.65" font-family="Helvetica,sans-Serif" font-size="14.00">HelloRequestMsg</text>
</g>
<!-- ServerHello -->
<g id="node2" class="node"><title>ServerHello</title>
<polygon fill="none" stroke="black" points="697.769,-1560.35 697.769,-1596.35 786.769,-1596.35 786.769,-1560.35 697.769,-1560.35"/>
<text text-anchor="middle" x="742.269" y="-1574.65" font-family="Helvetica,sans-Serif" font-size="14.00">ServerHello</text>
</g>
<!-- ClientHello&#45;&gt;ServerHello -->
<g id="edge1" class="edge"><title>ClientHello&#45;&gt;ServerHello</title>
<path fill="none" stroke="red" d="M690.504,-1702.18C700.633,-1678.15 719.136,-1634.24 731.058,-1605.95"/>
<polygon fill="red" stroke="red" points="734.317,-1607.23 734.975,-1596.66 727.867,-1604.51 734.317,-1607.23"/>
<text text-anchor="middle" x="640.504" y="-1690.98" font-family="Helvetica,sans-Serif" font-size="14.00">ServerHelloMsg</text>
</g>
<!-- ResumeSession -->
<g id="node3" class="node"><title>ResumeSession</title>
<polygon fill="none" stroke="black" points="1220.77,-1560.35 1220.77,-1596.35 1335.77,-1596.35 1335.77,-1560.35 1220.77,-1560.35"/>
<text text-anchor="middle" x="1278.27" y="-1574.65" font-family="Helvetica,sans-Serif" font-size="14.00">ResumeSession</text>
</g>
<!-- ClientHello&#45;&gt;ResumeSession -->
<g id="edge2" class="edge"><title>ClientHello&#45;&gt;ResumeSession</title>
<path fill="none" stroke="red" d="M725.583,-1709.39C827.43,-1685.43 1086.92,-1624.37 1210.65,-1595.26"/>
<polygon fill="red" stroke="red" points="1211.47,-1598.66 1220.4,-1592.97 1209.86,-1591.85 1211.47,-1598.66"/>
<text text-anchor="middle" x="775.583" y="-1698.19" font-family="Helvetica,sans-Serif" font-size="14.00">ServerHelloMsg</text>
</g>
<!-- ServerHello&#45;&gt;ServerHello -->
<g id="edge4" class="edge"><title>ServerHello&#45;&gt;ServerHello</title>
<path fill="none" stroke="red" d="M786.932,-1591.19C797.215,-1590.08 804.769,-1585.8 804.769,-1578.35 804.769,-1573.58 801.669,-1570.11 796.737,-1567.94"/>
<polygon fill="red" stroke="red" points="797.48,-1564.51 786.932,-1565.51 795.801,-1571.31 797.48,-1564.51"/>
<text text-anchor="middle" x="859.769" y="-1574.65" font-family="Helvetica,sans-Serif" font-size="14.00">HelloRequestMsg</text>
</g>
<!-- ServerCert_ServerCertificate -->
<g id="node5" class="node"><title>ServerCert_ServerCertificate</title>
<polygon fill="none" stroke="black" points="643.769,-1378.35 643.769,-1414.35 840.769,-1414.35 840.769,-1378.35 643.769,-1378.35"/>
<text text-anchor="middle" x="742.269" y="-1392.65" font-family="Helvetica,sans-Serif" font-size="14.00">ServerCert_ServerCertificate</text>
</g>
<!-- ServerHello&#45;&gt;ServerCert_ServerCertificate -->
<g id="edge7" class="edge"><title>ServerHello&#45;&gt;ServerCert_ServerCertificate</title>
<path fill="none" stroke="red" d="M742.269,-1560.09C742.269,-1528.78 742.269,-1462.37 742.269,-1424.78"/>
<polygon fill="red" stroke="red" points="745.769,-1424.56 742.269,-1414.56 738.769,-1424.56 745.769,-1424.56"/>
<text text-anchor="middle" x="696.769" y="-1548.89" font-family="Helvetica,sans-Serif" font-size="14.00">CertificateMsg</text>
</g>
<!-- NoCert_ServerKeyExchange -->
<g id="node14" class="node"><title>NoCert_ServerKeyExchange</title>
<polygon fill="none" stroke="black" points="1296.27,-1378.35 1296.27,-1414.35 1492.27,-1414.35 1492.27,-1378.35 1296.27,-1378.35"/>
<text text-anchor="middle" x="1394.27" y="-1392.65" font-family="Helvetica,sans-Serif" font-size="14.00">NoCert_ServerKeyExchange</text>
</g>
<!-- ServerHello&#45;&gt;NoCert_ServerKeyExchange -->
<g id="edge22" class="edge"><title>ServerHello&#45;&gt;NoCert_ServerKeyExchange</title>
<path fill="none" stroke="red" d="M786.934,-1569.3C880.601,-1551.82 1103.83,-1506.98 1284.27,-1445.85 1306.62,-1438.28 1330.69,-1427.93 1350.6,-1418.74"/>
<polygon fill="red" stroke="red" points="1352.15,-1421.88 1359.72,-1414.47 1349.18,-1415.54 1352.15,-1421.88"/>
<text text-anchor="middle" x="863.934" y="-1558.1" font-family="Helvetica,sans-Serif" font-size="14.00">ServerKeyExchangeMsg</text>
</g>
<!-- ResumeSession&#45;&gt;ResumeSession -->
<g id="edge5" class="edge"><title>ResumeSession&#45;&gt;ResumeSession</title>
<path fill="none" stroke="red" d="M1335.88,-1590.75C1346.39,-1589.18 1353.77,-1585.05 1353.77,-1578.35 1353.77,-1574.06 1350.74,-1570.82 1345.8,-1568.63"/>
<polygon fill="red" stroke="red" points="1346.44,-1565.18 1335.88,-1565.95 1344.61,-1571.94 1346.44,-1565.18"/>
<text text-anchor="middle" x="1408.77" y="-1574.65" font-family="Helvetica,sans-Serif" font-size="14.00">HelloRequestMsg</text>
</g>
<!-- ClientChangeCipherSpec -->
<g id="node4" class="node"><title>ClientChangeCipherSpec</title>
<polygon fill="none" stroke="black" points="911.769,-332.35 911.769,-368.35 1086.77,-368.35 1086.77,-332.35 911.769,-332.35"/>
<text text-anchor="middle" x="999.269" y="-346.65" font-family="Helvetica,sans-Serif" font-size="14.00">ClientChangeCipherSpec</text>
</g>
<!-- ResumeSession&#45;&gt;ClientChangeCipherSpec -->
<g id="edge6" class="edge"><title>ResumeSession&#45;&gt;ClientChangeCipherSpec</title>
<path fill="none" stroke="blue" d="M1336.08,-1573.49C1416.05,-1564.83 1558.86,-1536.78 1632.27,-1445.85 1645.95,-1428.91 1639.27,-1419.13 1639.27,-1397.35 1639.27,-1397.35 1639.27,-1397.35 1639.27,-502.35 1639.27,-392.322 1276.42,-362.379 1097.15,-354.299"/>
<polygon fill="blue" stroke="blue" points="1097.06,-350.792 1086.92,-353.853 1096.75,-357.785 1097.06,-350.792"/>
<text text-anchor="middle" x="1411.08" y="-1562.29" font-family="Helvetica,sans-Serif" font-size="14.00">ChangeCipherSpecMsg</text>
</g>
<!-- ClientFinish -->
<g id="node17" class="node"><title>ClientFinish</title>
<polygon fill="none" stroke="black" points="770.769,-190.35 770.769,-226.35 859.769,-226.35 859.769,-190.35 770.769,-190.35"/>
<text text-anchor="middle" x="815.269" y="-204.65" font-family="Helvetica,sans-Serif" font-size="14.00">ClientFinish</text>
</g>
<!-- ClientChangeCipherSpec&#45;&gt;ClientFinish -->
<g id="edge31" class="edge"><title>ClientChangeCipherSpec&#45;&gt;ClientFinish</title>
<path fill="none" stroke="blue" d="M976.707,-332.184C943.925,-307.241 883.02,-260.9 846.114,-232.82"/>
<polygon fill="blue" stroke="blue" points="847.805,-229.708 837.728,-226.438 843.567,-235.279 847.805,-229.708"/>
<text text-anchor="middle" x="926.707" y="-320.984" font-family="Helvetica,sans-Serif" font-size="14.00">ClientFinishMsg</text>
</g>
<!-- ServerCert_ServerCertificate&#45;&gt;ServerCert_ServerCertificate -->
<g id="edge10" class="edge"><title>ServerCert_ServerCertificate&#45;&gt;ServerCert_ServerCertificate</title>
<path fill="none" stroke="red" d="M840.86,-1407.39C851.743,-1405.29 858.769,-1401.61 858.769,-1396.35 858.769,-1392.9 855.743,-1390.12 850.587,-1388.03"/>
<polygon fill="red" stroke="red" points="851.433,-1384.64 840.86,-1385.31 849.546,-1391.38 851.433,-1384.64"/>
<text text-anchor="middle" x="913.769" y="-1392.65" font-family="Helvetica,sans-Serif" font-size="14.00">HelloRequestMsg</text>
</g>
<!-- ClientCert_CertificateRequest -->
<g id="node6" class="node"><title>ClientCert_CertificateRequest</title>
<polygon fill="none" stroke="black" points="598.269,-1053.35 598.269,-1089.35 800.269,-1089.35 800.269,-1053.35 598.269,-1053.35"/>
<text text-anchor="middle" x="699.269" y="-1067.65" font-family="Helvetica,sans-Serif" font-size="14.00">ClientCert_CertificateRequest</text>
</g>
<!-- ServerCert_ServerCertificate&#45;&gt;ClientCert_CertificateRequest -->
<g id="edge8" class="edge"><title>ServerCert_ServerCertificate&#45;&gt;ClientCert_CertificateRequest</title>
<path fill="none" stroke="red" d="M736.385,-1378.16C728.643,-1354.68 715.311,-1311.14 709.269,-1272.85 699.604,-1211.59 698.544,-1138.63 698.795,-1099.82"/>
<polygon fill="red" stroke="red" points="702.3,-1099.41 698.901,-1089.38 695.3,-1099.34 702.3,-1099.41"/>
<text text-anchor="middle" x="665.385" y="-1366.96" font-family="Helvetica,sans-Serif" font-size="14.00">CertificateRequestMsg</text>
</g>
<!-- ServerCertCannotEnc_ServerKeyExchange -->
<g id="node7" class="node"><title>ServerCertCannotEnc_ServerKeyExchange</title>
<polygon fill="none" stroke="black" points="718.769,-1236.35 718.769,-1272.35 1005.77,-1272.35 1005.77,-1236.35 718.769,-1236.35"/>
<text text-anchor="middle" x="862.269" y="-1250.65" font-family="Helvetica,sans-Serif" font-size="14.00">ServerCertCannotEnc_ServerKeyExchange</text>
</g>
<!-- ServerCert_ServerCertificate&#45;&gt;ServerCertCannotEnc_ServerKeyExchange -->
<g id="edge9" class="edge"><title>ServerCert_ServerCertificate&#45;&gt;ServerCertCannotEnc_ServerKeyExchange</title>
<path fill="none" stroke="red" d="M756.983,-1378.18C777.946,-1353.73 816.538,-1308.7 840.724,-1280.49"/>
<polygon fill="red" stroke="red" points="843.584,-1282.53 847.434,-1272.66 838.269,-1277.97 843.584,-1282.53"/>
<text text-anchor="middle" x="833.983" y="-1366.98" font-family="Helvetica,sans-Serif" font-size="14.00">ServerKeyExchangeMsg</text>
</g>
<!-- ClientCert_CertificateRequest&#45;&gt;ClientCert_CertificateRequest -->
<g id="edge16" class="edge"><title>ClientCert_CertificateRequest&#45;&gt;ClientCert_CertificateRequest</title>
<path fill="none" stroke="red" d="M800.407,-1082.31C811.277,-1080.2 818.269,-1076.55 818.269,-1071.35 818.269,-1067.94 815.258,-1065.2 810.115,-1063.11"/>
<polygon fill="red" stroke="red" points="810.98,-1059.72 800.407,-1060.39 809.09,-1066.46 810.98,-1059.72"/>
<text text-anchor="middle" x="873.269" y="-1067.65" font-family="Helvetica,sans-Serif" font-size="14.00">HelloRequestMsg</text>
</g>
<!-- ClientCert_ServerHelloDone -->
<g id="node9" class="node"><title>ClientCert_ServerHelloDone</title>
<polygon fill="none" stroke="black" points="603.769,-911.35 603.769,-947.35 796.769,-947.35 796.769,-911.35 603.769,-911.35"/>
<text text-anchor="middle" x="700.269" y="-925.65" font-family="Helvetica,sans-Serif" font-size="14.00">ClientCert_ServerHelloDone</text>
</g>
<!-- ClientCert_CertificateRequest&#45;&gt;ClientCert_ServerHelloDone -->
<g id="edge15" class="edge"><title>ClientCert_CertificateRequest&#45;&gt;ClientCert_ServerHelloDone</title>
<path fill="none" stroke="red" d="M699.392,-1053.18C699.562,-1029.36 699.872,-986.008 700.074,-957.699"/>
<polygon fill="red" stroke="red" points="703.574,-957.682 700.146,-947.658 696.574,-957.632 703.574,-957.682"/>
<text text-anchor="middle" x="632.892" y="-1041.98" font-family="Helvetica,sans-Serif" font-size="14.00">ServerHelloDoneMsg</text>
</g>
<!-- ServerCertCannotEnc_ServerKeyExchange&#45;&gt;ClientCert_CertificateRequest -->
<g id="edge11" class="edge"><title>ServerCertCannotEnc_ServerKeyExchange&#45;&gt;ClientCert_CertificateRequest</title>
<path fill="none" stroke="red" d="M846.934,-1236.32C817.931,-1204.12 754.946,-1134.18 721.376,-1096.9"/>
<polygon fill="red" stroke="red" points="723.975,-1094.55 714.682,-1089.47 718.773,-1099.24 723.975,-1094.55"/>
<text text-anchor="middle" x="775.934" y="-1225.12" font-family="Helvetica,sans-Serif" font-size="14.00">CertificateRequestMsg</text>
</g>
<!-- ServerCertCannotEnc_ServerKeyExchange&#45;&gt;ServerCertCannotEnc_ServerKeyExchange -->
<g id="edge13" class="edge"><title>ServerCertCannotEnc_ServerKeyExchange&#45;&gt;ServerCertCannotEnc_ServerKeyExchange</title>
<path fill="none" stroke="red" d="M1005.85,-1264.25C1016.93,-1262.06 1023.77,-1258.76 1023.77,-1254.35 1023.77,-1251.46 1020.83,-1249.04 1015.67,-1247.11"/>
<polygon fill="red" stroke="red" points="1016.41,-1243.68 1005.85,-1244.46 1014.59,-1250.44 1016.41,-1243.68"/>
<text text-anchor="middle" x="1078.77" y="-1250.65" font-family="Helvetica,sans-Serif" font-size="14.00">HelloRequestMsg</text>
</g>
<!-- ServerCert_ServerHelloDone -->
<g id="node8" class="node"><title>ServerCert_ServerHelloDone</title>
<polygon fill="none" stroke="black" points="946.269,-1053.35 946.269,-1089.35 1144.27,-1089.35 1144.27,-1053.35 946.269,-1053.35"/>
<text text-anchor="middle" x="1045.27" y="-1067.65" font-family="Helvetica,sans-Serif" font-size="14.00">ServerCert_ServerHelloDone</text>
</g>
<!-- ServerCertCannotEnc_ServerKeyExchange&#45;&gt;ServerCert_ServerHelloDone -->
<g id="edge12" class="edge"><title>ServerCertCannotEnc_ServerKeyExchange&#45;&gt;ServerCert_ServerHelloDone</title>
<path fill="none" stroke="red" d="M879.485,-1236.32C912.047,-1204.12 982.761,-1134.18 1020.45,-1096.9"/>
<polygon fill="red" stroke="red" points="1023.32,-1098.99 1027.97,-1089.47 1018.39,-1094.01 1023.32,-1098.99"/>
<text text-anchor="middle" x="945.985" y="-1225.12" font-family="Helvetica,sans-Serif" font-size="14.00">ServerHelloDoneMsg</text>
</g>
<!-- ServerCert_ServerHelloDone&#45;&gt;ServerCert_ServerHelloDone -->
<g id="edge14" class="edge"><title>ServerCert_ServerHelloDone&#45;&gt;ServerCert_ServerHelloDone</title>
<path fill="none" stroke="red" d="M1144.28,-1082.39C1155.21,-1080.29 1162.27,-1076.61 1162.27,-1071.35 1162.27,-1067.9 1159.23,-1065.12 1154.05,-1063.03"/>
<polygon fill="red" stroke="red" points="1154.86,-1059.62 1144.28,-1060.31 1152.98,-1066.37 1154.86,-1059.62"/>
<text text-anchor="middle" x="1217.27" y="-1067.65" font-family="Helvetica,sans-Serif" font-size="14.00">HelloRequestMsg</text>
</g>
<!-- ServerCert_ClientKeyExchange -->
<g id="node13" class="node"><title>ServerCert_ClientKeyExchange</title>
<polygon fill="none" stroke="black" points="944.269,-911.35 944.269,-947.35 1158.27,-947.35 1158.27,-911.35 944.269,-911.35"/>
<text text-anchor="middle" x="1051.27" y="-925.65" font-family="Helvetica,sans-Serif" font-size="14.00">ServerCert_ClientKeyExchange</text>
</g>
<!-- ServerCert_ServerHelloDone&#45;&gt;ServerCert_ClientKeyExchange -->
<g id="edge21" class="edge"><title>ServerCert_ServerHelloDone&#45;&gt;ServerCert_ClientKeyExchange</title>
<path fill="none" stroke="blue" d="M1046,-1053.18C1047.03,-1029.36 1048.88,-986.008 1050.1,-957.699"/>
<polygon fill="blue" stroke="blue" points="1053.6,-957.798 1050.53,-947.658 1046.6,-957.499 1053.6,-957.798"/>
<text text-anchor="middle" x="971.505" y="-1041.98" font-family="Helvetica,sans-Serif" font-size="14.00">ClientKeyExchangeMsg</text>
</g>
<!-- ClientCert_ServerHelloDone&#45;&gt;ClientCert_ServerHelloDone -->
<g id="edge18" class="edge"><title>ClientCert_ServerHelloDone&#45;&gt;ClientCert_ServerHelloDone</title>
<path fill="none" stroke="red" d="M797.167,-940.392C807.863,-938.295 814.769,-934.614 814.769,-929.35 814.769,-925.978 811.935,-923.256 807.086,-921.184"/>
<polygon fill="red" stroke="red" points="807.746,-917.731 797.167,-918.309 805.798,-924.454 807.746,-917.731"/>
<text text-anchor="middle" x="869.769" y="-925.65" font-family="Helvetica,sans-Serif" font-size="14.00">HelloRequestMsg</text>
</g>
<!-- ClientCert_ClientCertificate -->
<g id="node10" class="node"><title>ClientCert_ClientCertificate</title>
<polygon fill="none" stroke="black" points="686.769,-769.35 686.769,-805.35 873.769,-805.35 873.769,-769.35 686.769,-769.35"/>
<text text-anchor="middle" x="780.269" y="-783.65" font-family="Helvetica,sans-Serif" font-size="14.00">ClientCert_ClientCertificate</text>
</g>
<!-- ClientCert_ServerHelloDone&#45;&gt;ClientCert_ClientCertificate -->
<g id="edge17" class="edge"><title>ClientCert_ServerHelloDone&#45;&gt;ClientCert_ClientCertificate</title>
<path fill="none" stroke="blue" d="M707.075,-911.123C713.055,-896.584 722.334,-875.395 732.269,-857.85 740.841,-842.714 751.775,-826.682 761.042,-813.835"/>
<polygon fill="blue" stroke="blue" points="764.061,-815.637 767.142,-805.5 758.412,-811.503 764.061,-815.637"/>
<text text-anchor="middle" x="661.575" y="-899.923" font-family="Helvetica,sans-Serif" font-size="14.00">CertificateMsg</text>
</g>
<!-- ClientCert_ClientKeyExchange -->
<g id="node11" class="node"><title>ClientCert_ClientKeyExchange</title>
<polygon fill="none" stroke="black" points="702.769,-627.35 702.769,-663.35 911.769,-663.35 911.769,-627.35 702.769,-627.35"/>
<text text-anchor="middle" x="807.269" y="-641.65" font-family="Helvetica,sans-Serif" font-size="14.00">ClientCert_ClientKeyExchange</text>
</g>
<!-- ClientCert_ClientCertificate&#45;&gt;ClientCert_ClientKeyExchange -->
<g id="edge19" class="edge"><title>ClientCert_ClientCertificate&#45;&gt;ClientCert_ClientKeyExchange</title>
<path fill="none" stroke="blue" d="M783.58,-769.184C788.175,-745.358 796.535,-702.008 801.995,-673.699"/>
<polygon fill="blue" stroke="blue" points="805.474,-674.14 803.931,-663.658 798.601,-672.814 805.474,-674.14"/>
<text text-anchor="middle" x="709.08" y="-757.984" font-family="Helvetica,sans-Serif" font-size="14.00">ClientKeyExchangeMsg</text>
</g>
<!-- ClientCert_ClientKeyExchange&#45;&gt;ClientChangeCipherSpec -->
<g id="edge29" class="edge"><title>ClientCert_ClientKeyExchange&#45;&gt;ClientChangeCipherSpec</title>
<path fill="none" stroke="blue" d="M831.361,-627.266C860.192,-605.693 908.208,-566.021 937.269,-521.85 967.392,-476.066 985.209,-413.753 993.532,-378.531"/>
<polygon fill="blue" stroke="blue" points="997.005,-379.046 995.814,-368.519 990.18,-377.491 997.005,-379.046"/>
<text text-anchor="middle" x="906.361" y="-616.066" font-family="Helvetica,sans-Serif" font-size="14.00">ChangeCipherSpecMsg</text>
</g>
<!-- ClientCertCanSign_CertificateVerify -->
<g id="node12" class="node"><title>ClientCertCanSign_CertificateVerify</title>
<polygon fill="none" stroke="black" points="686.269,-485.35 686.269,-521.35 928.269,-521.35 928.269,-485.35 686.269,-485.35"/>
<text text-anchor="middle" x="807.269" y="-499.65" font-family="Helvetica,sans-Serif" font-size="14.00">ClientCertCanSign_CertificateVerify</text>
</g>
<!-- ClientCert_ClientKeyExchange&#45;&gt;ClientCertCanSign_CertificateVerify -->
<g id="edge20" class="edge"><title>ClientCert_ClientKeyExchange&#45;&gt;ClientCertCanSign_CertificateVerify</title>
<path fill="none" stroke="blue" d="M807.269,-627.184C807.269,-603.358 807.269,-560.008 807.269,-531.699"/>
<polygon fill="blue" stroke="blue" points="810.769,-531.658 807.269,-521.658 803.769,-531.658 810.769,-531.658"/>
<text text-anchor="middle" x="742.769" y="-615.984" font-family="Helvetica,sans-Serif" font-size="14.00">CertificateVerifyMsg</text>
</g>
<!-- ClientCertCanSign_CertificateVerify&#45;&gt;ClientChangeCipherSpec -->
<g id="edge30" class="edge"><title>ClientCertCanSign_CertificateVerify&#45;&gt;ClientChangeCipherSpec</title>
<path fill="none" stroke="blue" d="M828.921,-485.322C863.203,-458.361 930.079,-405.766 969.062,-375.107"/>
<polygon fill="blue" stroke="blue" points="971.705,-377.481 977.402,-368.548 967.378,-371.979 971.705,-377.481"/>
<text text-anchor="middle" x="753.921" y="-474.122" font-family="Helvetica,sans-Serif" font-size="14.00">ChangeCipherSpecMsg</text>
</g>
<!-- ServerCert_ClientKeyExchange&#45;&gt;ClientChangeCipherSpec -->
<g id="edge28" class="edge"><title>ServerCert_ClientKeyExchange&#45;&gt;ClientChangeCipherSpec</title>
<path fill="none" stroke="blue" d="M1047.02,-911.232C1040.88,-884.971 1030.27,-833.081 1030.27,-788.35 1030.27,-788.35 1030.27,-788.35 1030.27,-502.35 1030.27,-458.302 1017.45,-408.475 1008.3,-378.509"/>
<polygon fill="blue" stroke="blue" points="1011.58,-377.27 1005.25,-368.779 1004.9,-379.369 1011.58,-377.27"/>
<text text-anchor="middle" x="972.019" y="-900.032" font-family="Helvetica,sans-Serif" font-size="14.00">ChangeCipherSpecMsg</text>
</g>
<!-- NoCert_ServerKeyExchange&#45;&gt;NoCert_ServerKeyExchange -->
<g id="edge24" class="edge"><title>NoCert_ServerKeyExchange&#45;&gt;NoCert_ServerKeyExchange</title>
<path fill="none" stroke="red" d="M1492.44,-1407.39C1503.27,-1405.29 1510.27,-1401.61 1510.27,-1396.35 1510.27,-1392.9 1507.26,-1390.12 1502.12,-1388.03"/>
<polygon fill="red" stroke="red" points="1503.01,-1384.65 1492.44,-1385.31 1501.12,-1391.39 1503.01,-1384.65"/>
<text text-anchor="middle" x="1565.27" y="-1392.65" font-family="Helvetica,sans-Serif" font-size="14.00">HelloRequestMsg</text>
</g>
<!-- NoCert_ServerHelloDone -->
<g id="node15" class="node"><title>NoCert_ServerHelloDone</title>
<polygon fill="none" stroke="black" points="1304.77,-1236.35 1304.77,-1272.35 1479.77,-1272.35 1479.77,-1236.35 1304.77,-1236.35"/>
<text text-anchor="middle" x="1392.27" y="-1250.65" font-family="Helvetica,sans-Serif" font-size="14.00">NoCert_ServerHelloDone</text>
</g>
<!-- NoCert_ServerKeyExchange&#45;&gt;NoCert_ServerHelloDone -->
<g id="edge23" class="edge"><title>NoCert_ServerKeyExchange&#45;&gt;NoCert_ServerHelloDone</title>
<path fill="none" stroke="red" d="M1394.02,-1378.18C1393.68,-1354.36 1393.06,-1311.01 1392.66,-1282.7"/>
<polygon fill="red" stroke="red" points="1396.16,-1282.61 1392.52,-1272.66 1389.16,-1282.71 1396.16,-1282.61"/>
<text text-anchor="middle" x="1327.52" y="-1366.98" font-family="Helvetica,sans-Serif" font-size="14.00">ServerHelloDoneMsg</text>
</g>
<!-- NoCert_ServerHelloDone&#45;&gt;NoCert_ServerHelloDone -->
<g id="edge25" class="edge"><title>NoCert_ServerHelloDone&#45;&gt;NoCert_ServerHelloDone</title>
<path fill="none" stroke="red" d="M1479.99,-1265.71C1490.73,-1263.67 1497.77,-1259.89 1497.77,-1254.35 1497.77,-1250.72 1494.74,-1247.84 1489.62,-1245.71"/>
<polygon fill="red" stroke="red" points="1490.56,-1242.34 1479.99,-1243 1488.66,-1249.08 1490.56,-1242.34"/>
<text text-anchor="middle" x="1552.77" y="-1250.65" font-family="Helvetica,sans-Serif" font-size="14.00">HelloRequestMsg</text>
</g>
<!-- NoCert_ClientKeyExchange -->
<g id="node16" class="node"><title>NoCert_ClientKeyExchange</title>
<polygon fill="none" stroke="black" points="1296.77,-1053.35 1296.77,-1089.35 1487.77,-1089.35 1487.77,-1053.35 1296.77,-1053.35"/>
<text text-anchor="middle" x="1392.27" y="-1067.65" font-family="Helvetica,sans-Serif" font-size="14.00">NoCert_ClientKeyExchange</text>
</g>
<!-- NoCert_ServerHelloDone&#45;&gt;NoCert_ClientKeyExchange -->
<g id="edge26" class="edge"><title>NoCert_ServerHelloDone&#45;&gt;NoCert_ClientKeyExchange</title>
<path fill="none" stroke="blue" d="M1392.27,-1236.32C1392.27,-1204.92 1392.27,-1137.66 1392.27,-1099.77"/>
<polygon fill="blue" stroke="blue" points="1395.77,-1099.47 1392.27,-1089.47 1388.77,-1099.47 1395.77,-1099.47"/>
<text text-anchor="middle" x="1317.77" y="-1225.12" font-family="Helvetica,sans-Serif" font-size="14.00">ClientKeyExchangeMsg</text>
</g>
<!-- NoCert_ClientKeyExchange&#45;&gt;ClientChangeCipherSpec -->
<g id="edge27" class="edge"><title>NoCert_ClientKeyExchange&#45;&gt;ClientChangeCipherSpec</title>
<path fill="none" stroke="blue" d="M1381.45,-1052.97C1366.48,-1027.21 1341.27,-976.913 1341.27,-930.35 1341.27,-930.35 1341.27,-930.35 1341.27,-502.35 1341.27,-394.892 1198.22,-363.269 1097.16,-354.338"/>
<polygon fill="blue" stroke="blue" points="1097.15,-350.826 1086.9,-353.496 1096.58,-357.802 1097.15,-350.826"/>
<text text-anchor="middle" x="1306.45" y="-1041.77" font-family="Helvetica,sans-Serif" font-size="14.00">ChangeCipherSpecMsg</text>
</g>
<!-- ClientFinish&#45;&gt;ClientFinish -->
<g id="edge33" class="edge"><title>ClientFinish&#45;&gt;ClientFinish</title>
<path fill="none" stroke="red" d="M859.932,-221.186C870.215,-220.08 877.769,-215.802 877.769,-208.35 877.769,-203.577 874.669,-200.106 869.737,-197.936"/>
<polygon fill="red" stroke="red" points="870.48,-194.515 859.932,-195.515 868.801,-201.31 870.48,-194.515"/>
<text text-anchor="middle" x="932.769" y="-204.65" font-family="Helvetica,sans-Serif" font-size="14.00">HelloRequestMsg</text>
</g>
<!-- ServerChangeCipherSpec -->
<g id="node18" class="node"><title>ServerChangeCipherSpec</title>
<polygon fill="none" stroke="black" points="602.269,-48.3505 602.269,-84.3505 782.269,-84.3505 782.269,-48.3505 602.269,-48.3505"/>
<text text-anchor="middle" x="692.269" y="-62.6505" font-family="Helvetica,sans-Serif" font-size="14.00">ServerChangeCipherSpec</text>
</g>
<!-- ClientFinish&#45;&gt;ServerChangeCipherSpec -->
<g id="edge32" class="edge"><title>ClientFinish&#45;&gt;ServerChangeCipherSpec</title>
<path fill="none" stroke="red" d="M800.187,-190.184C778.701,-165.728 739.143,-120.703 714.353,-92.4864"/>
<polygon fill="red" stroke="red" points="716.704,-89.86 707.475,-84.6577 711.446,-94.4802 716.704,-89.86"/>
<text text-anchor="middle" x="725.187" y="-178.984" font-family="Helvetica,sans-Serif" font-size="14.00">ChangeCipherSpecMsg</text>
</g>
<!-- ServerChangeCipherSpec&#45;&gt;ServerChangeCipherSpec -->
<g id="edge36" class="edge"><title>ServerChangeCipherSpec&#45;&gt;ServerChangeCipherSpec</title>
<path fill="none" stroke="red" d="M782.471,-77.6298C793.238,-75.579 800.269,-71.8192 800.269,-66.3505 800.269,-62.7616 797.241,-59.9088 792.116,-57.7919"/>
<polygon fill="red" stroke="red" points="793.046,-54.4176 782.471,-55.0712 791.145,-61.1547 793.046,-54.4176"/>
<text text-anchor="middle" x="841.769" y="-62.6505" font-family="Helvetica,sans-Serif" font-size="14.00">HelloRequest</text>
</g>
<!-- Established -->
<g id="node20" class="node"><title>Established</title>
<polygon fill="none" stroke="black" points="207.769,-1884.35 207.769,-1920.35 294.769,-1920.35 294.769,-1884.35 207.769,-1884.35"/>
<text text-anchor="middle" x="251.269" y="-1898.65" font-family="Helvetica,sans-Serif" font-size="14.00">Established</text>
</g>
<!-- ServerChangeCipherSpec&#45;&gt;Established -->
<g id="edge35" class="edge"><title>ServerChangeCipherSpec&#45;&gt;Established</title>
<path fill="none" stroke="red" d="M601.97,-67.2952C416.997,-69.626 12.2691,-88.3255 12.2691,-207.35 12.2691,-1721.35 12.2691,-1721.35 12.2691,-1721.35 12.2691,-1813.75 127.664,-1864.65 198.089,-1887.11"/>
<polygon fill="red" stroke="red" points="197.123,-1890.47 207.711,-1890.09 199.195,-1883.79 197.123,-1890.47"/>
<text text-anchor="middle" x="569.97" y="-71.0952" font-family="Helvetica,sans-Serif" font-size="14.00">FinishMsg</text>
</g>
<!-- Start -->
<g id="node19" class="node"><title>Start</title>
<ellipse fill="none" stroke="black" cx="683.269" cy="-1902.35" rx="30.5947" ry="18"/>
<text text-anchor="middle" x="683.269" y="-1898.65" font-family="Helvetica,sans-Serif" font-size="14.00">Start</text>
</g>
<!-- Start&#45;&gt;ClientHello -->
<g id="edge34" class="edge"><title>Start&#45;&gt;ClientHello</title>
<path fill="none" stroke="blue" d="M683.269,-1884.09C683.269,-1852.78 683.269,-1786.37 683.269,-1748.78"/>
<polygon fill="blue" stroke="blue" points="686.769,-1748.56 683.269,-1738.56 679.769,-1748.56 686.769,-1748.56"/>
<text text-anchor="middle" x="635.769" y="-1872.89" font-family="Helvetica,sans-Serif" font-size="14.00">ClientHelloMsg</text>
</g>
<!-- Established&#45;&gt;ClientHello -->
<g id="edge37" class="edge"><title>Established&#45;&gt;ClientHello</title>
<path fill="none" stroke="blue" d="M293.151,-1884.31C354.2,-1859.42 471.157,-1811.55 570.269,-1769.85 591.419,-1760.95 614.728,-1750.98 634.655,-1742.4"/>
<polygon fill="blue" stroke="blue" points="636.048,-1745.61 643.846,-1738.44 633.277,-1739.18 636.048,-1745.61"/>
<text text-anchor="middle" x="340.651" y="-1873.11" font-family="Helvetica,sans-Serif" font-size="14.00">ClientHelloMsg</text>
</g>
<!-- HelloRequest -->
<g id="node21" class="node"><title>HelloRequest</title>
<polygon fill="none" stroke="black" points="40.7691,-1702.35 40.7691,-1738.35 139.769,-1738.35 139.769,-1702.35 40.7691,-1702.35"/>
<text text-anchor="middle" x="90.2691" y="-1716.65" font-family="Helvetica,sans-Serif" font-size="14.00">HelloRequest</text>
</g>
<!-- Established&#45;&gt;HelloRequest -->
<g id="edge38" class="edge"><title>Established&#45;&gt;HelloRequest</title>
<path fill="none" stroke="red" d="M231.653,-1884.09C199.854,-1852.11 138.273,-1783.51 107.832,-1746.41"/>
<polygon fill="red" stroke="red" points="110.496,-1744.13 101.486,-1738.56 105.053,-1748.53 110.496,-1744.13"/>
<text text-anchor="middle" x="176.653" y="-1872.89" font-family="Helvetica,sans-Serif" font-size="14.00">HelloRequestMsg</text>
</g>
<!-- ClientClosed -->
<g id="node22" class="node"><title>ClientClosed</title>
<polygon fill="none" stroke="black" points="202.769,-1702.35 202.769,-1738.35 299.769,-1738.35 299.769,-1702.35 202.769,-1702.35"/>
<text text-anchor="middle" x="251.269" y="-1716.65" font-family="Helvetica,sans-Serif" font-size="14.00">ClientClosed</text>
</g>
<!-- Established&#45;&gt;ClientClosed -->
<g id="edge44" class="edge"><title>Established&#45;&gt;ClientClosed</title>
<path fill="none" stroke="blue" d="M251.269,-1884.09C251.269,-1852.78 251.269,-1786.37 251.269,-1748.78"/>
<polygon fill="blue" stroke="blue" points="254.769,-1748.56 251.269,-1738.56 247.769,-1748.56 254.769,-1748.56"/>
<text text-anchor="middle" x="203.769" y="-1887.89" font-family="Helvetica,sans-Serif" font-size="14.00">CloseAlertError</text>
</g>
<!-- ServerClosed -->
<g id="node24" class="node"><title>ServerClosed</title>
<polygon fill="none" stroke="black" points="341.269,-1702.35 341.269,-1738.35 443.269,-1738.35 443.269,-1702.35 341.269,-1702.35"/>
<text text-anchor="middle" x="392.269" y="-1716.65" font-family="Helvetica,sans-Serif" font-size="14.00">ServerClosed</text>
</g>
<!-- Established&#45;&gt;ServerClosed -->
<g id="edge43" class="edge"><title>Established&#45;&gt;ServerClosed</title>
<path fill="none" stroke="red" d="M264.789,-1884.09C289.739,-1852.24 343.13,-1784.08 372.275,-1746.87"/>
<polygon fill="red" stroke="red" points="375.379,-1748.59 378.79,-1738.56 369.868,-1744.27 375.379,-1748.59"/>
<text text-anchor="middle" x="312.289" y="-1887.89" font-family="Helvetica,sans-Serif" font-size="14.00">CloseAlertError</text>
</g>
<!-- HelloRequest&#45;&gt;ClientHello -->
<g id="edge40" class="edge"><title>HelloRequest&#45;&gt;ClientHello</title>
<path fill="none" stroke="blue" d="M95,-1738.71C102.57,-1763.82 120.053,-1807.91 153.269,-1826.85 232.028,-1871.77 476.377,-1858.69 561.269,-1826.85 603.789,-1810.9 641.22,-1772.68 663.057,-1746.64"/>
<polygon fill="blue" stroke="blue" points="665.964,-1748.62 669.586,-1738.66 660.546,-1744.19 665.964,-1748.62"/>
<text text-anchor="middle" x="47.5" y="-1742.51" font-family="Helvetica,sans-Serif" font-size="14.00">ClientHelloMsg</text>
</g>
<!-- HelloRequest&#45;&gt;Established -->
<g id="edge39" class="edge"><title>HelloRequest&#45;&gt;Established</title>
<path fill="none" stroke="blue" d="M109.833,-1738.56C141.6,-1770.5 203.181,-1839.1 233.656,-1876.24"/>
<polygon fill="blue" stroke="blue" points="231.001,-1878.52 240.011,-1884.09 236.443,-1874.12 231.001,-1878.52"/>
<text text-anchor="middle" x="179.833" y="-1742.36" font-family="Helvetica,sans-Serif" font-size="14.00">NoRegotiationWarning</text>
</g>
<!-- ClientClosedAcknowledged -->
<g id="node23" class="node"><title>ClientClosedAcknowledged</title>
<polygon fill="none" stroke="black" points="156.769,-1560.35 156.769,-1596.35 345.769,-1596.35 345.769,-1560.35 156.769,-1560.35"/>
<text text-anchor="middle" x="251.269" y="-1574.65" font-family="Helvetica,sans-Serif" font-size="14.00">ClientClosedAcknowledged</text>
</g>
<!-- ClientClosed&#45;&gt;ClientClosedAcknowledged -->
<g id="edge41" class="edge"><title>ClientClosed&#45;&gt;ClientClosedAcknowledged</title>
<path fill="none" stroke="red" d="M251.269,-1702.18C251.269,-1678.36 251.269,-1635.01 251.269,-1606.7"/>
<polygon fill="red" stroke="red" points="254.769,-1606.66 251.269,-1596.66 247.769,-1606.66 254.769,-1606.66"/>
<text text-anchor="middle" x="203.769" y="-1690.98" font-family="Helvetica,sans-Serif" font-size="14.00">CloseAlertError</text>
</g>
<!-- ServerClosedAcknowledged -->
<g id="node25" class="node"><title>ServerClosedAcknowledged</title>
<polygon fill="none" stroke="black" points="364.269,-1560.35 364.269,-1596.35 558.269,-1596.35 558.269,-1560.35 364.269,-1560.35"/>
<text text-anchor="middle" x="461.269" y="-1574.65" font-family="Helvetica,sans-Serif" font-size="14.00">ServerClosedAcknowledged</text>
</g>
<!-- ServerClosed&#45;&gt;ServerClosedAcknowledged -->
<g id="edge42" class="edge"><title>ServerClosed&#45;&gt;ServerClosedAcknowledged</title>
<path fill="none" stroke="blue" d="M400.73,-1702.18C412.576,-1678.15 434.215,-1634.24 448.157,-1605.95"/>
<polygon fill="blue" stroke="blue" points="451.458,-1607.17 452.739,-1596.66 445.179,-1604.08 451.458,-1607.17"/>
<text text-anchor="middle" x="353.23" y="-1690.98" font-family="Helvetica,sans-Serif" font-size="14.00">CloseAlertError</text>
</g>
</g>
</svg>
